<svg width="25" height="25" fill="none" xmlns="http://www.w3.org/2000/svg"><path d="M2 2.5h6.829l-.015 11.37-2.761 2.762.158 3.984 2.614.102L8.83 23H2V2.5Z" fill="currentColor"/><path d="m5.999 15.674-.707-.707-.293.292v.414l1 .001Zm11.62-11.62.708-.708a1 1 0 0 0-1.414 0l.707.707Zm4.164 4.163.707.707a1 1 0 0 0 0-1.415l-.707.708Zm-11.62 11.62-.002 1h.415l.293-.292-.707-.708Zm-4.169-.003h-1a1 1 0 0 0 1 1v-1Zm.712-3.453 11.62-11.62-1.413-1.415L5.292 14.967l1.414 1.414Zm10.207-11.62 4.163 4.163 1.414-1.415-4.163-4.163-1.414 1.414Zm4.163 2.748L9.455 19.13l1.414 1.415L22.49 8.924l-1.414-1.415ZM10.163 18.837l-4.168-.003-.001 2 4.167.003.002-2Zm-3.169.999L7 15.676l-2-.003-.005 4.16 2 .003Z" fill="currentColor"/></svg>