<svg width="301" height="301" viewBox="0 0 301 301" fill="none" xmlns="http://www.w3.org/2000/svg">
<rect width="300" height="300" transform="translate(0.5 0.5)" fill="black"/>
<path d="M53.4412 53.4412H35.7942V71.0883H53.4412V53.4412Z" fill="white"/>
<path d="M71.0882 53.4412H53.4412V71.0883H71.0882V53.4412Z" fill="white"/>
<path d="M35.7943 71.0883H18.1472V88.7353H35.7943V71.0883Z" fill="white"/>
<path d="M35.7943 88.7353H18.1472V106.382H35.7943V88.7353Z" fill="white"/>
<path d="M53.4412 106.382H35.7942V124.029H53.4412V106.382Z" fill="white"/>
<path d="M71.0882 106.382H53.4412V124.029H71.0882V106.382Z" fill="white"/>
<path d="M88.7354 71.0883H71.0884V88.7353H88.7354V71.0883Z" fill="white"/>
<path d="M88.7354 88.7353H71.0884V106.382H88.7354V88.7353Z" fill="white"/>
<path d="M88.7354 124.029H71.0884V141.676H88.7354V124.029Z" fill="white"/>
<path d="M88.7354 141.676H71.0884V159.324H88.7354V141.676Z" fill="white"/>
<path d="M71.0882 141.676H53.4412V159.324H71.0882V141.676Z" fill="white"/>
<path d="M53.4412 141.676H35.7942V159.324H53.4412V141.676Z" fill="white"/>
<path d="M124.029 124.029H106.382V141.676H124.029V124.029Z" fill="white"/>
<path d="M124.029 106.382H106.382V124.029H124.029V106.382Z" fill="white"/>
<path d="M124.029 88.7353H106.382V106.382H124.029V88.7353Z" fill="white"/>
<path d="M124.029 71.0883H106.382V88.7353H124.029V71.0883Z" fill="white"/>
<path d="M141.677 53.4412H124.03V71.0883H141.677V53.4412Z" fill="white"/>
<path d="M159.324 53.4412H141.677V71.0883H159.324V53.4412Z" fill="white"/>
<path d="M141.677 88.7353H124.03V106.382H141.677V88.7353Z" fill="white"/>
<path d="M159.324 88.7353H141.677V106.382H159.324V88.7353Z" fill="white"/>
<path d="M265.206 124.029H247.559V141.676H265.206V124.029Z" fill="white"/>
<path d="M282.853 124.029H265.206V141.676H282.853V124.029Z" fill="white"/>
<path d="M35.7943 194.618H18.1472V212.265H35.7943V194.618Z" fill="white"/>
<path d="M53.4412 194.618H35.7942V212.265H53.4412V194.618Z" fill="white"/>
<path d="M71.0882 194.618H53.4412V212.265H71.0882V194.618Z" fill="white"/>
<path d="M106.382 194.618H88.7354V212.265H106.382V194.618Z" fill="white"/>
<path d="M124.029 176.971H106.382V194.618H124.029V176.971Z" fill="white"/>
<path d="M159.324 194.618H141.677V212.265H159.324V194.618Z" fill="white"/>
<path d="M176.971 176.971H159.324V194.618H176.971V176.971Z" fill="white"/>
<path d="M194.618 53.4412H176.971V71.0883H194.618V53.4412Z" fill="white"/>
<path d="M229.912 53.4412H212.265V71.0883H229.912V53.4412Z" fill="white"/>
<path d="M212.265 71.0883H194.618V88.7353H212.265V71.0883Z" fill="white"/>
<path d="M212.265 88.7353H194.618V106.382H212.265V88.7353Z" fill="white"/>
<path d="M212.265 106.382H194.618V124.029H212.265V106.382Z" fill="white"/>
<path d="M194.618 124.029H176.971V141.676H194.618V124.029Z" fill="white"/>
<path d="M229.912 124.029H212.265V141.676H229.912V124.029Z" fill="white"/>
<path d="M141.677 159.324H124.03V176.971H141.677V159.324Z" fill="white"/>
<path d="M194.618 159.324H176.971V176.971H194.618V159.324Z" fill="white"/>
<path d="M124.029 212.265H106.382V229.912H124.029V212.265Z" fill="white"/>
<path d="M141.677 212.265H124.03V229.912H141.677V212.265Z" fill="white"/>
<path d="M282.853 106.382H265.206V124.029H282.853V106.382Z" fill="white"/>
<path d="M265.206 106.382H247.559V124.029H265.206V106.382Z" fill="white"/>
<path d="M194.618 212.265H176.971V229.912H194.618V212.265Z" fill="white"/>
<path d="M212.265 194.618H194.618V212.265H212.265V194.618Z" fill="white"/>
<path d="M229.912 176.971H212.265V194.618H229.912V176.971Z" fill="white"/>
<path d="M247.559 159.324H229.912V176.971H247.559V159.324Z" fill="white"/>
</svg>
